/* XPM */
static char *haskell_40[] = {
/* columns rows colors chars-per-pixel */
"40 40 2 1 ",
"  c white",
". c None",
/* pixels */
"........................................",
"........................................",
"........................................",
"........................................",
"........................................",
"........................................",
"        ..        ......................",
"        ..        ......................",
"..        ..      ......................",
"..        ..      ......................",
"....      ..        ....................",
"....      ..        ....................",
"....        ..        ..................",
"....        ..        ..................",
"......        ..      ..                ",
"......        ..      ..                ",
"........      ..        ..              ",
"........      ..        ..              ",
"........        ..        ..............",
"........        ..        ..............",
"........        ..        ..............",
"........        ..        ..............",
"........      ..            ..          ",
"........      ..            ..          ",
"......        ..              ..        ",
"......        ..              ..        ",
"....        ..        ..      ..........",
"....        ..        ..      ..........",
"....      ..        ....        ........",
"....      ..        ....        ........",
"..        ..      ........        ......",
"..        ..      ........        ......",
"        ..        ..........      ......",
"        ..        ..........      ......",
"........................................",
"........................................",
"........................................",
"........................................",
"........................................",
"........................................"
};
