/* XPM */
static char *nf_beaker_fizz_22[] = {
/* columns rows colors chars-per-pixel */
"22 22 2 1 ",
"  c white",
". c None",
/* pixels */
"......................",
"......................",
"......... ............",
"......................",
".....           ......",
"...... ......  .......",
"...... ... ..  .......",
"...... ......  .......",
"...... ......  .......",
"...... .. ...  .......",
"...... ....... .......",
"...... .... .. .......",
"..... ........  ......",
"..... ........  ......",
"....            ......",
"....             .....",
"...              .....",
"...               ....",
"...               ....",
"..                 ...",
"..                 ...",
"......................"
};
